<?xml version="1.0" encoding="UTF-8" standalone="no"?>
<svg
   xmlns:svg="http://www.w3.org/2000/svg"
   xmlns="http://www.w3.org/2000/svg"
   width="200.0"
   height="300.0"

>
    <g transform="scale(2.9605263079986157, -2.9605263079986157)   translate(53.37777778666666,-5.3777778866666655)" stroke-width="0.3377777786666666"  fill="none">
       <!-- hidden lines -->
       <g  stroke="rgb(0,0,255)" fill="none" stroke-dasharray="0.3377777786666666,0.3377777786666666" >

       </g>

       <!-- solid lines -->
       <g  stroke="rgb(255,0,0)" fill="none">
			<path d="M0.0,0.0 L0.0,-74.0 " />
			<path d="M-7.0,0.0 L0.0,0.0 " />
			<path d="M0.0,-74.0 L-6.25,-74.0 " />
			<path d="M-10.0,2.0 L-9.954851143508298,1.8685347387047042 L-9.9065667293709,1.7415188491058793 L-9.855146757587804,1.6189523312035248 L-9.800591228159012,1.5008351849976411 L-9.742900141084524,1.3871674104882283 L-9.682073496364339,1.277949007675286 L-9.618111293998457,1.1731799765588145 L-9.551013533986877,1.0728603171388136 L-9.480780216329602,0.9769900294152833 L-9.40741134102663,0.885569113388224 L-9.330906908077962,0.798597569057635 L-9.251266917483598,0.7160753964235169 L-9.168491369243535,0.6380025954858695 L-9.082580263357777,0.5643791662446926 L-8.993533599826321,0.4952051086999867 L-8.90135137864917,0.43048042285175137 L-8.806033599826321,0.3702051086999867 L-8.707580263357777,0.31437916624469286 L-8.605991369243535,0.26300259548586946 L-8.501266917483598,0.21607539642351692 L-8.393406908077962,0.1735975690576348 L-8.28241134102663,0.13556911338822353 L-8.168280216329602,0.10199002941528312 L-8.051013533986877,0.07286031713881336 L-7.9306112939984565,0.04817997655881423 L-7.807073496364337,0.027949007675285742 L-7.680400141084523,0.012167410488228114 L-7.5505912281590115,0.0008351849976411252 L-7.417646757587804,-0.006047668796475225 L-7.2815667293708985,-0.008481150894120937 L-7.142351143508297,-0.006465261295295566 L-7.0000000000000036,-4.440892098500626e-16 " />
			<path d="M-6.25,-74.0 L-6.563931926864352,-73.98371296800356 L-6.875636494593939,-73.9600239329735 L-7.185178975466741,-73.92916821679675 L-7.492624641760732,-73.89138114136024 L-7.798038765753892,-73.84689802855088 L-8.101486619724199,-73.79595420025562 L-8.403033475949627,-73.73878497836137 L-8.702744606708157,-73.67562568475506 L-9.000685284277766,-73.6067116413236 L-9.296920780936432,-73.53227816995394 L-9.591516368962129,-73.45256059253299 L-9.884537320632841,-73.36779423094767 L-10.17604890822654,-73.27821440708492 L-10.466116404021207,-73.18405644283166 L-10.754805080294815,-73.08555566007482 L-11.042180209325348,-72.9829473807013 L-11.328307063390778,-72.87646692659807 L-11.613250914769086,-72.76634961965202 L-11.89707703573825,-72.65283078175008 L-12.179850698576242,-72.5361457347792 L-12.461637175561046,-72.41652980062626 L-12.742507728368045,-72.29423449340065 L-13.02256984819369,-72.16960927303556 L-13.301944578909488,-72.04304023886444 L-15.526724513121994,-71.00685024437273 L-16.084520328500357,-70.75539602696125 L-16.36432423205019,-70.63293180766573 L-16.644893556134242,-70.51315773215362 L-16.92634936822285,-70.39645996355738 L-17.208812735786353,-70.28322466500946 L-17.492404726295096,-70.1738379996423 L-17.77724640721941,-70.06868613058839 L-18.063458846029636,-69.96815522098017 L-18.351163110196115,-69.87263143395008 L-18.640480267189183,-69.78250093263057 L-18.93152302823139,-69.69812728919652 L-19.22428978250942,-69.6195650083646 L-19.51869608975828,-69.54664466699809 L-19.81465565771635,-69.47919183512242 L-20.112082194122006,-69.41703208276306 L-20.410889406713626,-69.35999097994545 L-20.710991003229584,-69.30789409669507 L-21.01230069140826,-69.26056700303732 L-21.31473217898803,-69.2178352689977 L-21.618199173707268,-69.17952446460164 L-21.92261538330436,-69.14546015987462 L-22.227894515517683,-69.11546792484205 L-22.5339502780856,-69.08937332952942 L-22.840696378746504,-69.06700194396215 L-23.14804652523877,-69.04817933816574 L-23.45591442530077,-69.0327310821656 L-23.764213786670876,-69.0204827459872 L-24.072858317087476,-69.01125989965598 L-24.38176172428895,-69.00488811319741 L-24.690837716013668,-69.00119295663694 L-25.0,-69.00000000000001 L-25.309162283986335,-69.00119295663694 L-25.618238275711054,-69.00488811319741 L-25.927141682912524,-69.01125989965598 L-26.235786213329124,-69.0204827459872 L-26.544085574699235,-69.0327310821656 L-26.851953474761235,-69.04817933816574 L-27.159303621253496,-69.06700194396217 L-27.4660497219144,-69.08937332952942 L-27.772105484482317,-69.11546792484205 L-28.07738461669564,-69.14546015987462 L-28.38180082629273,-69.17952446460166 L-28.68526782101197,-69.2178352689977 L-28.987699308591736,-69.26056700303732 L-29.289008996770413,-69.30789409669507 L-29.58911059328637,-69.35999097994547 L-29.887917805877986,-69.41703208276307 L-30.185344342283642,-69.47919183512244 L-30.481303910241714,-69.54664466699809 L-30.775710217490573,-69.61956500836462 L-31.068476971768604,-69.69812728919652 L-31.35951973281081,-69.78250093263058 L-31.648836889803878,-69.87263143395008 L-31.93654115397036,-69.96815522098017 L-32.222753592780585,-70.0686861305884 L-32.507595273704894,-70.17383799964232 L-32.79118726421364,-70.28322466500946 L-33.07365063177714,-70.39645996355738 L-33.35510644386575,-70.51315773215362 L-33.635675767949806,-70.63293180766573 L-33.91547967149964,-70.75539602696126 L-34.473275486878,-71.00685024437274 L-36.69805542109051,-72.04304023886445 L-36.97743015180631,-72.16960927303558 L-37.25749227163195,-72.29423449340067 L-37.538362824438956,-72.41652980062628 L-37.82014930142376,-72.53614573477921 L-38.10292296426175,-72.6528307817501 L-38.38674908523092,-72.76634961965203 L-38.671692936609226,-72.87646692659808 L-38.957819790674655,-72.98294738070132 L-39.245194919705185,-73.08555566007483 L-39.53388359597879,-73.18405644283168 L-39.823951091773466,-73.27821440708493 L-40.11546267936716,-73.36779423094768 L-40.408483631037875,-73.45256059253299 L-40.703079219063575,-73.53227816995394 L-40.999314715722235,-73.6067116413236 L-41.29725539329185,-73.67562568475506 L-41.59696652405037,-73.73878497836137 L-41.8985133802758,-73.79595420025562 L-42.20196123424611,-73.84689802855088 L-42.50737535823927,-73.89138114136024 L-42.81482102453326,-73.92916821679675 L-43.124363505406066,-73.9600239329735 L-43.43606807313565,-73.98371296800356 L-43.74999999999993,-74.0 " />
			<path d="M-22.0,-1.0 L-10.0,2.0 " />
			<path d="M-43.75,-74.0 L-50.0,-74.0 " />
			<path d="M-20.2,-7.0 L-20.196326221934875,-6.723015496697225 L-20.20032583371392,-6.446035506768757 L-20.21199576627856,-6.169272567795538 L-20.231327064833042,-5.892939050806819 L-20.258304895715803,-5.617246997319566 L-20.292908557781903,-5.3424079566307086 L-20.33511149828785,-5.068632823487086 L-20.384881333266534,-4.796131676257662 L-20.44217987237672,-4.525113615732177 L-20.50696314820799,-4.255786604669925 L-20.57918145001867,-3.988357308221801 L-20.658779361880796,-3.723030935348041 L-20.745695805202963,-3.460011081353362 L-20.839864085598276,-3.199499571660323 L-20.9412119440616,-2.9416963069407798 L-21.049661612416692,-2.68679910972428 L-21.165129872990786,-2.435003572601101 L-21.28752812247075,-2.1865029081364016 L-21.41676243989189,-1.9414878006106626 L-21.55273365870717,-1.7001462597001815 L-21.69533744288158,-1.4626634762098956 L-21.84446436695328,-1.229221679969224 L-22.0,-1.0000000000000009 " />
			<path d="M-50.0,-74.0 L-50.0,-10.0 " />
			<path d="M0.0,-7.0 L-20.2,-7.0 " />
			<path d="M-50.0,-9.999999999999996 L-49.707508328168394,-9.952520791874678 L-49.41640167037602,-9.897180326715722 L-49.12689127298871,-9.834018763247895 L-48.83918722401951,-9.763081935705447 L-48.55349830067484,-9.684421320571717 L-48.270031817851816,-9.598093999224398 L-47.98899347769683,-9.504162616513474 L-47.71058722033432,-9.402695335301955 L-47.43501507587429,-9.293765787002355 L-47.16247701780577,-9.177453018144856 L-46.89317081788279,-9.053841433015869 L-46.62729190260799,-8.923020732408682 L-46.365033211418194,-8.785085848530573 L-46.10658505667463,-8.640136876113697 L-45.85213498555972,-8.488278999779697 L-45.60186764398028,-8.329622417710706 L-45.35596464257618,-8.164282261682255 L-45.114604424931606,-7.992378513515957 L-44.87796213808449,-7.814035918012737 L-44.646209505428175,-7.6293838924296935 L-44.41951470209747,-7.438556432566312 L-44.19804223292961,-7.241692015528217 L-43.98195281308858,-7.038933499238949 L-43.77140325143951,-6.830428018772752 L-43.56654633675768,-6.616326879583582 L-43.367530726854895,-6.3967854477077815 L-43.1745008407034,-6.17196303702015 L-42.98759675363592,-5.942022793625204 L-42.80695409569764,-5.707131577467486 L-42.63270395322405,-5.467459841246898 L-42.46497277371596,-5.2231815067268705 L-42.303882274080735,-4.974473838525158 L-42.149549352306494,-4.721517315478838 L-42.002086002633085,-4.464495499676843 L-41.86159923428162,-4.203594903255109 L-41.72819099380147,-3.939004853050934 L-41.60195809109107,-3.6709173532148465 L-41.48299212914621,-3.3995269458796034 L-41.37137943758678,-3.125030569987467 L-41.26720101001031,-2.84762741837821 L-41.17053244521754,-2.567518793241527 L-41.081443892352986,-2.2849079600387707 L-41.0,-2.000000000000005 " />
			<path d="M-20.2,-8.5 L-19.5747024741016,-8.367787836646102 L-18.949020917616004,-8.241081296734391 L-18.322955330543202,-8.119880380264867 L-17.696505712883205,-8.00418508723753 L-17.069672064636006,-7.8939954176523806 L-16.442454385801604,-7.7893113715094175 L-15.814852676380006,-7.690132948808642 L-15.186866936371207,-7.596460149550053 L-14.558497165775208,-7.50829297373365 L-13.929743364592008,-7.425631421359435 L-13.300605532821608,-7.348475492427407 L-12.671083670464009,-7.2768251869375655 L-12.04117777751921,-7.210680504889911 L-11.41088785398721,-7.150041446284444 L-10.780213899868011,-7.094908011121163 L-10.149155915161609,-7.04528019940007 L-9.51771389986801,-7.001158011121163 L-8.88588785398721,-6.962541446284444 L-8.25367777751921,-6.929430504889911 L-7.62108367046401,-6.9018251869375655 L-6.98810553282161,-6.879725492427407 L-6.354743364592007,-6.863131421359435 L-5.7209971657752074,-6.85204297373365 L-5.086866936371207,-6.846460149550053 L-4.452352676380007,-6.846382948808642 L-3.8174543858016037,-6.8518113715094175 L-3.1821720646360063,-6.8627454176523806 L-2.546505712883203,-6.879185087237531 L-1.9104553305432006,-6.901130380264868 L-1.274020917616003,-6.928581296734391 L-0.6372024741015991,-6.961537836646102 L-3.552713678800501e-14,-6.999999999999998 " />
			<path d="M-41.0,-1.9999999999999996 L-29.0,-6.0 " />
			<path d="M-25.0,-22.0 L-24.864102731017077,-21.97258664021336 L-24.730475828369975,-21.94253993041519 L-24.59910213008144,-21.909893302302347 L-24.469964474174212,-21.874680187571688 L-24.343045698671038,-21.836934017920072 L-24.21832864159466,-21.796688225044356 L-24.095796140967824,-21.753976240641396 L-23.975431034813273,-21.708831496408052 L-23.857216161153747,-21.661287424041177 L-23.741134358011998,-21.611377455237633 L-23.627168463410765,-21.559135021694278 L-23.515301315372795,-21.504593555107967 L-23.405515751920827,-21.447786487175556 L-23.29779461107761,-21.388747249593905 L-23.192120730865884,-21.327509274059867 L-23.088476949308397,-21.26410599227031 L-22.98684610442789,-21.19857083592208 L-22.88721103424711,-21.13093723671204 L-22.789554576788795,-21.061238626337044 L-22.6938595700757,-20.989508436493956 L-22.600108852130557,-20.915780098879626 L-22.508285260976116,-20.840087045190916 L-22.418371634635122,-20.762462707124683 L-22.330350811130316,-20.682940516377784 L-22.24420562848444,-20.601553904647073 L-22.159918924720245,-20.51833630362941 L-22.07747353786047,-20.433321145021658 L-21.996852305927867,-20.346541860520666 L-21.918038066945165,-20.258031881823296 L-21.841013658935122,-20.167824640626403 L-21.76576191992047,-20.075953568626847 L-21.692265687923964,-19.982452097521485 L-21.620507800968344,-19.88735365900717 L-21.55047109707635,-19.790691684780768 L-21.482138414270732,-19.692499606539126 L-21.41549259057423,-19.592810855979113 L-21.35051646400959,-19.491658864797575 L-21.287192872599555,-19.389077064691378 L-21.225504654366873,-19.285098887357375 L-21.16543464733428,-19.179757764492425 L-21.106965689524525,-19.073087127793386 L-21.050080618960354,-18.965120408957112 L-20.94099349165973,-18.7454324516603 L-20.83803596961436,-18.52096134617685 L-20.7410707570062,-18.291974546081615 L-20.649960558017195,-18.05873950494946 L-20.564568076829303,-17.82152367635525 L-20.484756017624477,-17.58059451387383 L-20.410387084584663,-17.33621947108007 L-20.34132398189182,-17.08866600154883 L-20.27742941372789,-16.838201558854962 L-20.218566084274837,-16.585093596573333 L-20.164596697714604,-16.329609568278798 L-20.11538395822915,-16.072016927546223 L-20.070790570000423,-15.812583127950461 L-20.03067923721038,-15.551575623066372 L-19.994912664040967,-15.289261866468818 L-19.96335355467414,-15.025909311732658 L-19.935864613291848,-14.76178541243275 L-19.912308544076044,-14.497157622143957 L-19.892548051208685,-14.232293394441136 L-19.876445838871717,-13.967460182899146 L-19.863864611247095,-13.702925441092848 L-19.854667072516772,-13.438956622597102 L-19.8487159268627,-13.175821180986766 L-19.845873878466826,-12.9137865698367 L-19.84600363151111,-12.653120242721766 L-19.848967890177498,-12.394089653216817 L-19.854629358647944,-12.13696225489672 L-19.862850741104403,-11.88200550133633 L-19.87349474172882,-11.629486846110508 L-19.886424064703156,-11.379673742794115 L-19.90150141420936,-11.132833644962009 L-19.91858949442938,-10.889234006189046 L-19.93755100954517,-10.649142280050093 L-19.98054516119188,-10.18055237997364 L-20.0293855026051,-9.729203573331532 L-20.08297366724045,-9.297235488722634 L-20.14021128855354,-8.886787754745832 L-20.199999999999996,-8.50000000000001 " />
			<path d="M-29.0,-6.0 L-29.075390623702134,-6.105645988210474 L-29.14992455001358,-6.214157630459406 L-29.22358219125552,-6.32547395373605 L-29.296343959749148,-6.439533985029663 L-29.36819026781565,-6.556276751329504 L-29.43910152777621,-6.675641279624827 L-29.50905815195202,-6.797566596904891 L-29.578040552664262,-6.92199173015895 L-29.646029142234127,-7.048855706376263 L-29.713004332982802,-7.1780975525460855 L-29.84383616730133,-7.443470962700287 L-29.97037935418934,-7.717624176535608 L-30.09247719221634,-8.000069409966102 L-30.209972979951818,-8.290318878905822 L-30.32271001596528,-8.58788479926882 L-30.430531598826224,-8.892279386969154 L-30.53328102710415,-9.20301485792087 L-30.63080159936855,-9.519603428038028 L-30.722936614188928,-9.841557313234679 L-30.809529370134783,-10.168388729424876 L-30.89042316577561,-10.499609892522672 L-30.96546129968091,-10.834733018442122 L-31.03448707042018,-11.173270323097277 L-31.097343776562923,-11.514734022402193 L-31.153874716678637,-11.858636332270923 L-31.203923189336816,-12.204489468617517 L-31.247332493106963,-12.551805647356032 L-31.283945926558577,-12.900097084400521 L-31.313606788261154,-13.248875995665035 L-31.33615837678419,-13.597654597063629 L-31.35144399069719,-13.945945104510358 L-31.359306928569655,-14.293259733919273 L-31.359590488971072,-14.639110701204427 L-31.352137970470952,-14.983010222279873 L-31.34546171243578,-15.154075757962099 L-31.336792671638786,-15.32447051305967 L-31.326111260401156,-15.494133514561838 L-31.313397891044076,-15.663003789457864 L-31.298632975888733,-15.831020364737004 L-31.281796927256316,-15.998122267388512 L-31.262870157468015,-16.16424852440165 L-31.241833078845012,-16.329338162765666 L-31.218666103708497,-16.493330209469825 L-31.19334964437966,-16.656163691503384 L-31.165864113179683,-16.81777763585559 L-31.136189922429754,-16.978111069515712 L-31.104307484451066,-17.137103019472995 L-31.0701972115648,-17.294692512716708 L-31.033839516092147,-17.450818576236095 L-30.995214810354295,-17.605420237020418 L-30.954303506672424,-17.75843652205894 L-30.911086017367733,-17.90980645834091 L-30.8655427547614,-18.059469072855588 L-30.817654131174613,-18.207363392592228 L-30.767400558928568,-18.353428444540086 L-30.71476245034444,-18.497603255688425 L-30.659720217743427,-18.639826853026495 L-30.60225427344671,-18.780038263543553 L-30.54234502977548,-18.91817651422886 L-30.47997289905092,-19.054180632071674 L-30.415118293594222,-19.187989644061243 L-30.34776162572657,-19.31954257718683 L-30.27788330776915,-19.448778458437694 L-30.20546375204316,-19.575636314803084 L-30.130483370869772,-19.70005517327226 L-30.052922576570182,-19.82197406083448 L-29.97276178146558,-19.941332004479005 L-29.889981397877143,-20.05806803119508 L-29.804561838126066,-20.172121167971973 L-29.71648351453354,-20.283430441798934 L-29.625726839420743,-20.39193487966522 L-29.532272225108866,-20.497573508560095 L-29.4361000839191,-20.600285355472806 L-29.33719082817263,-20.700009447392613 L-29.235524870190638,-20.79668481130878 L-29.131082622294322,-20.89025047421055 L-29.02384449680486,-20.980645463087193 L-28.913790906043445,-21.067808804927957 L-28.80090226233126,-21.1516795267221 L-28.68515897798949,-21.23219665545888 L-28.566541465339334,-21.309299218127553 L-28.445030136701966,-21.382926241717378 L-28.32060540439858,-21.453016753217607 L-28.193247680750368,-21.5195097796175 L-28.06293737807851,-21.582344347906314 L-27.929654908704194,-21.641459485073305 L-27.793380684948605,-21.696794218107733 L-27.65409511913294,-21.748287573998848 L-27.51177862357838,-21.79587857973591 L-27.36641161060611,-21.839506262308173 L-27.217974492537323,-21.8791096487049 L-27.066447681693205,-21.91462776591534 L-26.911811590394937,-21.945999640928758 L-26.754046630963714,-21.973164300734403 L-26.59313321572072,-21.99606077232154 L-26.42905175698714,-22.014628082679415 L-26.261782667084162,-22.02880525879729 L-26.091306358332982,-22.038531327664426 L-25.91760324305478,-22.043745316270076 L-25.740653733570742,-22.04438625160349 L-25.560438242202057,-22.040393160653938 L-25.376937181269916,-22.031705070410666 L-25.190130963095502,-22.018261007862936 L-25.000000000000046,-22.000000000000007 " />
			<path d="M-25.0,-22.0 L-26.0,-45.0 " />
			<path d="M-24.0,-45.0 L-25.0,-22.0 " />
			<path d="M-26.0,-45.0 L-25.0,-69.0 " />
			<path d="M-25.0,-69.0 L-24.0,-45.0 " />

       </g>
    </g>
    
</svg>
